<?xml version="1.0" encoding="UTF-8"?>
<svg width="34px" height="34px" viewBox="0 0 34 34" version="1.1" xmlns="http://www.w3.org/2000/svg" xmlns:xlink="http://www.w3.org/1999/xlink">
    <!-- Generator: Sketch 48.2 (47327) - http://www.bohemiancoding.com/sketch -->
    <title>Times</title>
    <desc>Created with Sketch.</desc>
    <defs></defs>
    <g id="Page-1" stroke="none" stroke-width="1" fill="none" fill-rule="evenodd">
        <path d="M17,12.7053819 L28.8101998,0.89518211 C29.9961258,-0.290743933 31.9188918,-0.290743933 33.1048179,0.89518211 C34.2907439,2.08110815 34.2907439,4.00387417 33.1048179,5.18980021 L21.2946181,17 L33.1048179,28.8101998 C34.2907439,29.9961258 34.2907439,31.9188918 33.1048179,33.1048179 C31.9188918,34.2907439 29.9961258,34.2907439 28.8101998,33.1048179 L17,21.2946181 L5.18980021,33.1048179 C4.00387417,34.2907439 2.08110815,34.2907439 0.89518211,33.1048179 C-0.290743933,31.9188918 -0.290743933,29.9961258 0.89518211,28.8101998 L12.7053819,17 L0.89518211,5.18980021 C-0.290743933,4.00387417 -0.290743933,2.08110815 0.89518211,0.89518211 C2.08110815,-0.290743933 4.00387417,-0.290743933 5.18980021,0.89518211 L17,12.7053819 Z" id="Times" fill="#FE052C"></path>
    </g>
</svg>